<mxfile host="Electron" agent="Mozilla/5.0 (Windows NT 10.0; Win64; x64) AppleWebKit/537.36 (KHTML, like Gecko) draw.io/24.7.17 Chrome/128.0.6613.36 Electron/32.0.1 Safari/537.36" version="24.7.17">
  <diagram id="processWord" name="processWord">
    <mxGraphModel dx="1131" dy="1696" grid="1" gridSize="10" guides="1" tooltips="1" connect="1" arrows="1" fold="1" page="1" pageScale="1" pageWidth="827" pageHeight="1169" math="0" shadow="0">
      <root>
        <mxCell id="0" />
        <mxCell id="1" parent="0" />
        <mxCell id="3" value="GetChar" style="rounded=0;fillColor=#1f1f1f;strokeColor=#666666;fontColor=#FFFFFF;" parent="1" vertex="1">
          <mxGeometry x="180" y="170" width="120" height="60" as="geometry" />
        </mxCell>
        <mxCell id="4" value="EndWord" style="rhombus;fillColor=#1f1f1f;strokeColor=#666666;fontColor=#FFFFFF;" parent="1" vertex="1">
          <mxGeometry x="180" y="270" width="120" height="120" as="geometry" />
        </mxCell>
        <mxCell id="5" value="GetFont" style="rounded=0;fillColor=#1f1f1f;strokeColor=#666666;fontColor=#FFFFFF;" parent="1" vertex="1">
          <mxGeometry x="180" y="430" width="120" height="30" as="geometry" />
        </mxCell>
        <mxCell id="10" value="" style="endArrow=classic;html=1;exitX=0.5;exitY=1;entryX=0.5;entryY=0;fontColor=#FFFFFF;" parent="1" source="2" target="3" edge="1">
          <mxGeometry width="50" height="50" relative="1" as="geometry" />
        </mxCell>
        <mxCell id="NHGstH4LDQB7K_S2m7ze-68" value="Word parameter" style="edgeLabel;html=1;align=center;verticalAlign=middle;resizable=0;points=[];" vertex="1" connectable="0" parent="10">
          <mxGeometry x="-0.2776" relative="1" as="geometry">
            <mxPoint as="offset" />
          </mxGeometry>
        </mxCell>
        <mxCell id="11" value="" style="endArrow=classic;html=1;exitX=0.5;exitY=1;entryX=0.5;entryY=0;fontColor=#FFFFFF;" parent="1" source="3" target="4" edge="1">
          <mxGeometry width="50" height="50" relative="1" as="geometry" />
        </mxCell>
        <mxCell id="NHGstH4LDQB7K_S2m7ze-19" value="Get next Char" style="edgeLabel;html=1;align=center;verticalAlign=middle;resizable=0;points=[];" vertex="1" connectable="0" parent="11">
          <mxGeometry x="-0.1" y="-1" relative="1" as="geometry">
            <mxPoint as="offset" />
          </mxGeometry>
        </mxCell>
        <mxCell id="12" value="" style="endArrow=classic;html=1;exitX=0.5;exitY=1;entryX=0.5;entryY=0;fontColor=#FFFFFF;" parent="1" source="4" target="5" edge="1">
          <mxGeometry width="50" height="50" relative="1" as="geometry" />
        </mxCell>
        <mxCell id="13" value="" style="endArrow=classic;html=1;exitX=1;exitY=0.5;entryX=0;entryY=0.5;fontColor=#FFFFFF;" parent="1" source="4" target="9" edge="1">
          <mxGeometry width="50" height="50" relative="1" as="geometry" />
        </mxCell>
        <mxCell id="14" value="" style="endArrow=classic;html=1;exitX=0.5;exitY=1;entryX=0.5;entryY=0;fontColor=#FFFFFF;" parent="1" source="5" target="6" edge="1">
          <mxGeometry width="50" height="50" relative="1" as="geometry" />
        </mxCell>
        <mxCell id="NHGstH4LDQB7K_S2m7ze-26" value="Get char data" style="edgeLabel;html=1;align=center;verticalAlign=middle;resizable=0;points=[];" vertex="1" connectable="0" parent="14">
          <mxGeometry x="-0.5695" relative="1" as="geometry">
            <mxPoint as="offset" />
          </mxGeometry>
        </mxCell>
        <mxCell id="NHGstH4LDQB7K_S2m7ze-22" value="Character Processing" style="swimlane;whiteSpace=wrap;html=1;startSize=23;" vertex="1" parent="1">
          <mxGeometry x="60" y="40" width="610" height="1120" as="geometry">
            <mxRectangle x="60" y="40" width="140" height="30" as="alternateBounds" />
          </mxGeometry>
        </mxCell>
        <mxCell id="NHGstH4LDQB7K_S2m7ze-23" value="Stroke Processing" style="swimlane;whiteSpace=wrap;html=1;" vertex="1" parent="NHGstH4LDQB7K_S2m7ze-22">
          <mxGeometry x="25" y="479" width="265" height="630" as="geometry">
            <mxRectangle x="25" y="479" width="140" height="30" as="alternateBounds" />
          </mxGeometry>
        </mxCell>
        <mxCell id="6" value="ProcessStrokes" style="rounded=0;fillColor=#1f1f1f;strokeColor=#666666;fontColor=#FFFFFF;" parent="NHGstH4LDQB7K_S2m7ze-23" vertex="1">
          <mxGeometry x="102.5" y="61" width="105" height="39" as="geometry" />
        </mxCell>
        <mxCell id="7" value="GetStroke" style="rounded=0;fillColor=#1f1f1f;strokeColor=#666666;fontColor=#FFFFFF;" parent="NHGstH4LDQB7K_S2m7ze-23" vertex="1">
          <mxGeometry x="112.5" y="151" width="85" height="39" as="geometry" />
        </mxCell>
        <mxCell id="15" value="" style="endArrow=classic;html=1;exitX=0.5;exitY=1;entryX=0.5;entryY=0;fontColor=#FFFFFF;" parent="NHGstH4LDQB7K_S2m7ze-23" source="6" target="7" edge="1">
          <mxGeometry width="50" height="50" relative="1" as="geometry" />
        </mxCell>
        <mxCell id="NHGstH4LDQB7K_S2m7ze-25" value="For each stroke" style="edgeLabel;html=1;align=center;verticalAlign=middle;resizable=0;points=[];" vertex="1" connectable="0" parent="15">
          <mxGeometry x="0.015" relative="1" as="geometry">
            <mxPoint as="offset" />
          </mxGeometry>
        </mxCell>
        <mxCell id="16" value="" style="endArrow=classic;html=1;exitX=0.5;exitY=1;fontColor=#FFFFFF;entryX=0.5;entryY=0;entryDx=0;entryDy=0;" parent="NHGstH4LDQB7K_S2m7ze-23" source="NHGstH4LDQB7K_S2m7ze-28" target="NHGstH4LDQB7K_S2m7ze-51" edge="1">
          <mxGeometry width="50" height="50" relative="1" as="geometry">
            <mxPoint x="55" y="361" as="targetPoint" />
          </mxGeometry>
        </mxCell>
        <mxCell id="NHGstH4LDQB7K_S2m7ze-50" value="no" style="edgeLabel;html=1;align=center;verticalAlign=middle;resizable=0;points=[];" vertex="1" connectable="0" parent="16">
          <mxGeometry x="-0.0778" y="-1" relative="1" as="geometry">
            <mxPoint as="offset" />
          </mxGeometry>
        </mxCell>
        <mxCell id="NHGstH4LDQB7K_S2m7ze-28" value="DoneStrokes" style="rounded=0;fillColor=#1f1f1f;strokeColor=#666666;fontColor=#FFFFFF;" vertex="1" parent="NHGstH4LDQB7K_S2m7ze-23">
          <mxGeometry x="25" y="261" width="105" height="39" as="geometry" />
        </mxCell>
        <mxCell id="NHGstH4LDQB7K_S2m7ze-29" value="" style="endArrow=classic;html=1;exitX=0.5;exitY=1;fontColor=#FFFFFF;" edge="1" parent="NHGstH4LDQB7K_S2m7ze-23" source="7" target="NHGstH4LDQB7K_S2m7ze-28">
          <mxGeometry width="50" height="50" relative="1" as="geometry">
            <mxPoint x="240" y="729" as="sourcePoint" />
            <mxPoint x="180" y="849" as="targetPoint" />
          </mxGeometry>
        </mxCell>
        <mxCell id="NHGstH4LDQB7K_S2m7ze-30" value="Check if done" style="edgeLabel;html=1;align=center;verticalAlign=middle;resizable=0;points=[];" vertex="1" connectable="0" parent="NHGstH4LDQB7K_S2m7ze-29">
          <mxGeometry x="-0.233" y="1" relative="1" as="geometry">
            <mxPoint as="offset" />
          </mxGeometry>
        </mxCell>
        <mxCell id="NHGstH4LDQB7K_S2m7ze-63" style="edgeStyle=orthogonalEdgeStyle;rounded=0;orthogonalLoop=1;jettySize=auto;html=1;exitX=0.5;exitY=1;exitDx=0;exitDy=0;entryX=0.5;entryY=0;entryDx=0;entryDy=0;" edge="1" parent="NHGstH4LDQB7K_S2m7ze-23" source="NHGstH4LDQB7K_S2m7ze-51" target="NHGstH4LDQB7K_S2m7ze-61">
          <mxGeometry relative="1" as="geometry" />
        </mxCell>
        <mxCell id="NHGstH4LDQB7K_S2m7ze-51" value="scalemovements()" style="swimlane;whiteSpace=wrap;html=1;" vertex="1" parent="NHGstH4LDQB7K_S2m7ze-23">
          <mxGeometry x="16.25" y="351" width="122.5" height="79" as="geometry">
            <mxRectangle x="25" y="479" width="140" height="30" as="alternateBounds" />
          </mxGeometry>
        </mxCell>
        <mxCell id="NHGstH4LDQB7K_S2m7ze-52" value="ScaleStroke" style="rounded=0;fillColor=#1f1f1f;strokeColor=#666666;fontColor=#FFFFFF;" vertex="1" parent="NHGstH4LDQB7K_S2m7ze-51">
          <mxGeometry x="8.75" y="30" width="105" height="39" as="geometry" />
        </mxCell>
        <mxCell id="NHGstH4LDQB7K_S2m7ze-64" style="edgeStyle=orthogonalEdgeStyle;rounded=0;orthogonalLoop=1;jettySize=auto;html=1;exitX=0.5;exitY=1;exitDx=0;exitDy=0;entryX=0;entryY=0.5;entryDx=0;entryDy=0;" edge="1" parent="NHGstH4LDQB7K_S2m7ze-23" source="NHGstH4LDQB7K_S2m7ze-61" target="NHGstH4LDQB7K_S2m7ze-65">
          <mxGeometry relative="1" as="geometry">
            <mxPoint x="84.99999999999977" y="591" as="targetPoint" />
          </mxGeometry>
        </mxCell>
        <mxCell id="NHGstH4LDQB7K_S2m7ze-66" value="Add current position" style="edgeLabel;html=1;align=center;verticalAlign=middle;resizable=0;points=[];" vertex="1" connectable="0" parent="NHGstH4LDQB7K_S2m7ze-64">
          <mxGeometry x="-0.1939" relative="1" as="geometry">
            <mxPoint y="-19" as="offset" />
          </mxGeometry>
        </mxCell>
        <mxCell id="NHGstH4LDQB7K_S2m7ze-61" value="generateGCode()" style="swimlane;whiteSpace=wrap;html=1;" vertex="1" parent="NHGstH4LDQB7K_S2m7ze-23">
          <mxGeometry x="16.25" y="471" width="122.5" height="79" as="geometry">
            <mxRectangle x="25" y="479" width="140" height="30" as="alternateBounds" />
          </mxGeometry>
        </mxCell>
        <mxCell id="NHGstH4LDQB7K_S2m7ze-62" value="AdjustPos" style="rounded=0;fillColor=#1f1f1f;strokeColor=#666666;fontColor=#FFFFFF;" vertex="1" parent="NHGstH4LDQB7K_S2m7ze-61">
          <mxGeometry x="8.75" y="30" width="105" height="39" as="geometry" />
        </mxCell>
        <mxCell id="NHGstH4LDQB7K_S2m7ze-67" style="edgeStyle=orthogonalEdgeStyle;rounded=0;orthogonalLoop=1;jettySize=auto;html=1;exitX=0.5;exitY=0;exitDx=0;exitDy=0;entryX=1;entryY=0.5;entryDx=0;entryDy=0;curved=1;" edge="1" parent="NHGstH4LDQB7K_S2m7ze-23" source="NHGstH4LDQB7K_S2m7ze-65" target="7">
          <mxGeometry relative="1" as="geometry">
            <Array as="points">
              <mxPoint x="235" y="571" />
              <mxPoint x="235" y="171" />
            </Array>
          </mxGeometry>
        </mxCell>
        <mxCell id="NHGstH4LDQB7K_S2m7ze-65" value="GenCode" style="rounded=0;fillColor=#1f1f1f;strokeColor=#666666;fontColor=#FFFFFF;" vertex="1" parent="NHGstH4LDQB7K_S2m7ze-23">
          <mxGeometry x="138.75" y="571" width="105" height="39" as="geometry" />
        </mxCell>
        <mxCell id="19" value="no" style="text;html=1;align=center;verticalAlign=middle;resizable=0;points=[];fontColor=#FFFFFF;" parent="NHGstH4LDQB7K_S2m7ze-22" vertex="1">
          <mxGeometry x="180" y="350" width="40" height="20" as="geometry" />
        </mxCell>
        <mxCell id="NHGstH4LDQB7K_S2m7ze-44" value="NextChar" style="rounded=0;fillColor=#1f1f1f;strokeColor=#666666;fontColor=#FFFFFF;" vertex="1" parent="NHGstH4LDQB7K_S2m7ze-22">
          <mxGeometry x="310" y="740" width="105" height="39" as="geometry" />
        </mxCell>
        <mxCell id="NHGstH4LDQB7K_S2m7ze-31" style="rounded=0;orthogonalLoop=1;jettySize=auto;html=1;exitX=1;exitY=0.5;exitDx=0;exitDy=0;entryX=0;entryY=0.5;entryDx=0;entryDy=0;" edge="1" parent="NHGstH4LDQB7K_S2m7ze-22" source="NHGstH4LDQB7K_S2m7ze-28" target="NHGstH4LDQB7K_S2m7ze-44">
          <mxGeometry relative="1" as="geometry">
            <mxPoint x="320" y="790" as="targetPoint" />
          </mxGeometry>
        </mxCell>
        <mxCell id="NHGstH4LDQB7K_S2m7ze-32" value="yes" style="edgeLabel;html=1;align=center;verticalAlign=middle;resizable=0;points=[];" vertex="1" connectable="0" parent="NHGstH4LDQB7K_S2m7ze-31">
          <mxGeometry x="-0.3215" y="-1" relative="1" as="geometry">
            <mxPoint y="-1" as="offset" />
          </mxGeometry>
        </mxCell>
        <mxCell id="NHGstH4LDQB7K_S2m7ze-46" value="UpdatePos" style="rounded=0;fillColor=#1f1f1f;strokeColor=#666666;fontColor=#FFFFFF;" vertex="1" parent="NHGstH4LDQB7K_S2m7ze-22">
          <mxGeometry x="354" y="860" width="105" height="39" as="geometry" />
        </mxCell>
        <mxCell id="NHGstH4LDQB7K_S2m7ze-47" value="" style="edgeStyle=orthogonalEdgeStyle;rounded=0;orthogonalLoop=1;jettySize=auto;html=1;exitX=0.5;exitY=1;exitDx=0;exitDy=0;curved=1;" edge="1" parent="NHGstH4LDQB7K_S2m7ze-22" source="NHGstH4LDQB7K_S2m7ze-44" target="NHGstH4LDQB7K_S2m7ze-46">
          <mxGeometry relative="1" as="geometry">
            <mxPoint x="422.79999999999995" y="880" as="targetPoint" />
            <mxPoint x="423" y="839" as="sourcePoint" />
            <Array as="points">
              <mxPoint x="363" y="820" />
              <mxPoint x="390" y="820" />
            </Array>
          </mxGeometry>
        </mxCell>
        <mxCell id="NHGstH4LDQB7K_S2m7ze-48" value="Update X position" style="edgeLabel;html=1;align=center;verticalAlign=middle;resizable=0;points=[];" vertex="1" connectable="0" parent="NHGstH4LDQB7K_S2m7ze-47">
          <mxGeometry x="0.031" y="-1" relative="1" as="geometry">
            <mxPoint as="offset" />
          </mxGeometry>
        </mxCell>
        <mxCell id="9" value="ReturnPos" style="ellipse;whiteSpace=wrap;html=1;fillColor=#1f1f1f;strokeColor=#666666;fontColor=#FFFFFF;" parent="NHGstH4LDQB7K_S2m7ze-22" vertex="1">
          <mxGeometry x="459" y="270" width="120" height="60" as="geometry" />
        </mxCell>
        <mxCell id="2" value="processWord" style="ellipse;whiteSpace=wrap;html=1;fillColor=#1f1f1f;strokeColor=#666666;fontColor=#FFFFFF;" parent="NHGstH4LDQB7K_S2m7ze-22" vertex="1">
          <mxGeometry x="120" y="30" width="120" height="60" as="geometry" />
        </mxCell>
        <mxCell id="18" value="yes" style="text;html=1;align=center;verticalAlign=middle;resizable=0;points=[];fontColor=#FFFFFF;" parent="1" vertex="1">
          <mxGeometry x="320" y="300" width="40" height="20" as="geometry" />
        </mxCell>
        <mxCell id="NHGstH4LDQB7K_S2m7ze-49" style="edgeStyle=orthogonalEdgeStyle;rounded=0;orthogonalLoop=1;jettySize=auto;html=1;exitX=0.75;exitY=0;exitDx=0;exitDy=0;entryX=1;entryY=0.5;entryDx=0;entryDy=0;curved=1;" edge="1" parent="1" source="NHGstH4LDQB7K_S2m7ze-46" target="3">
          <mxGeometry relative="1" as="geometry">
            <Array as="points">
              <mxPoint x="510" y="900" />
              <mxPoint x="510" y="200" />
            </Array>
          </mxGeometry>
        </mxCell>
        <mxCell id="NHGstH4LDQB7K_S2m7ze-70" style="edgeStyle=orthogonalEdgeStyle;rounded=0;orthogonalLoop=1;jettySize=auto;html=1;exitX=0;exitY=0.5;exitDx=0;exitDy=0;entryX=0.5;entryY=0;entryDx=0;entryDy=0;" edge="1" parent="1" source="NHGstH4LDQB7K_S2m7ze-69" target="2">
          <mxGeometry relative="1" as="geometry">
            <mxPoint x="230" y="14.793103448275929" as="targetPoint" />
          </mxGeometry>
        </mxCell>
        <mxCell id="NHGstH4LDQB7K_S2m7ze-71" value="Called from processText()" style="edgeLabel;html=1;align=center;verticalAlign=middle;resizable=0;points=[];" vertex="1" connectable="0" parent="NHGstH4LDQB7K_S2m7ze-70">
          <mxGeometry x="-0.0968" y="-1" relative="1" as="geometry">
            <mxPoint as="offset" />
          </mxGeometry>
        </mxCell>
        <mxCell id="NHGstH4LDQB7K_S2m7ze-69" value="" style="ellipse;whiteSpace=wrap;html=1;fillColor=#1f1f1f;strokeColor=#666666;fontColor=#FFFFFF;" vertex="1" parent="1">
          <mxGeometry x="520" y="10" width="20" height="20" as="geometry" />
        </mxCell>
        <mxCell id="NHGstH4LDQB7K_S2m7ze-73" value="" style="ellipse;whiteSpace=wrap;html=1;fillColor=#1f1f1f;strokeColor=#666666;fontColor=#FFFFFF;" vertex="1" parent="1">
          <mxGeometry x="790" y="330" width="20" height="20" as="geometry" />
        </mxCell>
        <mxCell id="NHGstH4LDQB7K_S2m7ze-20" style="edgeStyle=orthogonalEdgeStyle;rounded=0;orthogonalLoop=1;jettySize=auto;html=1;exitX=1;exitY=0.5;exitDx=0;exitDy=0;" edge="1" parent="1" source="9" target="NHGstH4LDQB7K_S2m7ze-73">
          <mxGeometry relative="1" as="geometry">
            <mxPoint x="810" y="340" as="targetPoint" />
          </mxGeometry>
        </mxCell>
        <mxCell id="NHGstH4LDQB7K_S2m7ze-21" value="Return final x&lt;br&gt;to processText()" style="edgeLabel;html=1;align=center;verticalAlign=middle;resizable=0;points=[];" vertex="1" connectable="0" parent="NHGstH4LDQB7K_S2m7ze-20">
          <mxGeometry x="0.0401" y="2" relative="1" as="geometry">
            <mxPoint x="2" y="2" as="offset" />
          </mxGeometry>
        </mxCell>
      </root>
    </mxGraphModel>
  </diagram>
</mxfile>
